<svg xmlns="http://www.w3.org/2000/svg" xmlns:xlink="http://www.w3.org/1999/xlink" width="40" zoomAndPan="magnify" viewBox="0 0 30 30.000001" height="40" preserveAspectRatio="xMidYMid meet" version="1.0"><defs><clipPath id="5290d4e978"><path d="M 8.214844 7.730469 L 22.003906 7.730469 L 22.003906 21.519531 L 8.214844 21.519531 Z M 8.214844 7.730469 " clip-rule="nonzero"/></clipPath></defs><g clip-path="url(#5290d4e978)"><path fill="#000000" d="M 19.261719 18.777344 C 18.152344 19.886719 16.679688 20.5 15.109375 20.5 C 13.539062 20.5 12.066406 19.886719 10.953125 18.777344 C 9.84375 17.667969 9.234375 16.195312 9.234375 14.625 C 9.234375 13.054688 9.84375 11.582031 10.953125 10.472656 C 12.066406 9.363281 13.539062 8.75 15.109375 8.75 C 16.679688 8.75 18.152344 9.363281 19.261719 10.472656 C 20.371094 11.582031 20.984375 13.054688 20.984375 14.625 C 20.984375 16.195312 20.371094 17.667969 19.261719 18.777344 Z M 15.109375 7.730469 C 13.265625 7.730469 11.535156 8.445312 10.234375 9.75 C 8.929688 11.050781 8.214844 12.78125 8.214844 14.625 C 8.214844 16.46875 8.929688 18.199219 10.234375 19.5 C 11.535156 20.804688 13.265625 21.519531 15.109375 21.519531 C 16.949219 21.519531 18.683594 20.804688 19.984375 19.5 C 21.289062 18.199219 22.003906 16.46875 22.003906 14.625 C 22.003906 12.78125 21.289062 11.050781 19.984375 9.75 C 18.683594 8.445312 16.949219 7.730469 15.109375 7.730469 " fill-opacity="1" fill-rule="nonzero"/></g><path fill="#000000" d="M 18.027344 12.128906 L 14.058594 16.097656 L 12.402344 14.441406 C 12.179688 14.21875 11.8125 14.21875 11.589844 14.441406 C 11.363281 14.667969 11.363281 15.03125 11.589844 15.257812 L 13.652344 17.316406 C 13.761719 17.429688 13.910156 17.484375 14.058594 17.484375 C 14.203125 17.484375 14.351562 17.429688 14.464844 17.316406 L 18.839844 12.941406 C 19.066406 12.71875 19.066406 12.351562 18.839844 12.128906 C 18.617188 11.90625 18.25 11.90625 18.027344 12.128906 " fill-opacity="1" fill-rule="nonzero"/></svg>