<svg xmlns="http://www.w3.org/2000/svg" xmlns:xlink="http://www.w3.org/1999/xlink" width="40" zoomAndPan="magnify" viewBox="0 0 30 30.000001" height="40" preserveAspectRatio="xMidYMid meet" version="1.0"><defs><clipPath id="0512e5b559"><path d="M 8.433594 7.21875 L 21.496094 7.21875 L 21.496094 21.734375 L 8.433594 21.734375 Z M 8.433594 7.21875 " clip-rule="nonzero"/></clipPath></defs><path fill="#272324" d="M 13.0625 17.101562 C 13.117188 16.027344 14.003906 15.175781 15.085938 15.175781 L 16.183594 15.175781 C 17.265625 15.175781 18.15625 16.027344 18.207031 17.101562 Z M 14.492188 12.996094 C 14.492188 12.363281 15.003906 11.851562 15.636719 11.851562 C 16.265625 11.851562 16.78125 12.363281 16.78125 12.996094 C 16.78125 13.625 16.265625 14.140625 15.636719 14.140625 C 15.003906 14.140625 14.492188 13.625 14.492188 12.996094 Z M 16.285156 14.59375 C 16.914062 14.339844 17.363281 13.71875 17.363281 12.996094 C 17.363281 12.042969 16.585938 11.269531 15.636719 11.269531 C 14.683594 11.269531 13.910156 12.042969 13.910156 12.996094 C 13.910156 13.71875 14.355469 14.339844 14.988281 14.59375 C 13.59375 14.648438 12.476562 15.796875 12.476562 17.203125 L 12.476562 17.390625 C 12.476562 17.550781 12.609375 17.683594 12.769531 17.683594 L 18.503906 17.683594 C 18.664062 17.683594 18.792969 17.550781 18.792969 17.390625 L 18.792969 17.203125 C 18.792969 15.796875 17.675781 14.648438 16.285156 14.59375 " fill-opacity="1" fill-rule="nonzero"/><path fill="#272324" d="M 15.636719 11.859375 C 15.007812 11.859375 14.496094 12.367188 14.496094 12.996094 C 14.496094 13.621094 15.007812 14.132812 15.636719 14.132812 C 16.261719 14.132812 16.773438 13.621094 16.773438 12.996094 C 16.773438 12.367188 16.261719 11.859375 15.636719 11.859375 Z M 15.636719 14.144531 C 15 14.144531 14.484375 13.628906 14.484375 12.996094 C 14.484375 12.359375 15 11.84375 15.636719 11.84375 C 16.269531 11.84375 16.785156 12.359375 16.785156 12.996094 C 16.785156 13.628906 16.269531 14.144531 15.636719 14.144531 Z M 13.070312 17.09375 L 18.203125 17.09375 C 18.144531 16.019531 17.257812 15.179688 16.183594 15.179688 L 15.085938 15.179688 C 14.011719 15.179688 13.125 16.019531 13.070312 17.09375 Z M 18.214844 17.105469 L 13.054688 17.105469 L 13.054688 17.101562 C 13.082031 16.578125 13.304688 16.09375 13.683594 15.730469 C 14.0625 15.367188 14.5625 15.167969 15.085938 15.167969 L 16.183594 15.167969 C 16.707031 15.167969 17.207031 15.367188 17.585938 15.730469 C 17.964844 16.09375 18.1875 16.578125 18.214844 17.101562 Z M 15.636719 11.277344 C 14.6875 11.277344 13.914062 12.046875 13.914062 12.996094 C 13.914062 13.699219 14.335938 14.324219 14.988281 14.589844 L 15.019531 14.601562 L 14.988281 14.601562 C 13.582031 14.65625 12.484375 15.796875 12.484375 17.203125 L 12.484375 17.390625 C 12.484375 17.546875 12.613281 17.675781 12.769531 17.675781 L 18.503906 17.675781 C 18.660156 17.675781 18.785156 17.546875 18.785156 17.390625 L 18.785156 17.203125 C 18.785156 15.796875 17.6875 14.65625 16.285156 14.601562 L 16.253906 14.601562 L 16.28125 14.589844 C 16.933594 14.324219 17.355469 13.699219 17.355469 12.996094 C 17.355469 12.046875 16.582031 11.277344 15.636719 11.277344 Z M 18.503906 17.6875 L 12.769531 17.6875 C 12.605469 17.6875 12.472656 17.554688 12.472656 17.390625 L 12.472656 17.203125 C 12.472656 16.523438 12.730469 15.878906 13.207031 15.386719 C 13.671875 14.90625 14.292969 14.621094 14.957031 14.589844 C 14.652344 14.460938 14.394531 14.246094 14.207031 13.972656 C 14.007812 13.683594 13.902344 13.347656 13.902344 12.996094 C 13.902344 12.039062 14.679688 11.261719 15.636719 11.261719 C 16.589844 11.261719 17.367188 12.039062 17.367188 12.996094 C 17.367188 13.347656 17.261719 13.683594 17.066406 13.972656 C 16.875 14.246094 16.617188 14.460938 16.3125 14.589844 C 16.980469 14.621094 17.601562 14.90625 18.066406 15.386719 C 18.539062 15.878906 18.800781 16.523438 18.800781 17.203125 L 18.800781 17.390625 C 18.800781 17.554688 18.667969 17.6875 18.503906 17.6875 " fill-opacity="1" fill-rule="nonzero"/><g clip-path="url(#0512e5b559)"><path fill="#272324" d="M 20.90625 19.910156 C 20.90625 20.589844 20.355469 21.144531 19.671875 21.144531 L 11.597656 21.144531 C 10.917969 21.144531 10.363281 20.589844 10.363281 19.910156 L 10.363281 19.0625 L 11.414062 19.0625 C 11.574219 19.0625 11.707031 18.929688 11.707031 18.769531 C 11.707031 18.609375 11.574219 18.480469 11.414062 18.480469 L 10.363281 18.480469 L 10.363281 16.199219 L 11.414062 16.199219 C 11.574219 16.199219 11.707031 16.070312 11.707031 15.90625 C 11.707031 15.746094 11.574219 15.617188 11.414062 15.617188 L 10.363281 15.617188 L 10.363281 13.347656 L 11.414062 13.347656 C 11.574219 13.347656 11.707031 13.21875 11.707031 13.058594 C 11.707031 12.898438 11.574219 12.769531 11.414062 12.769531 L 10.363281 12.769531 L 10.363281 10.503906 L 11.414062 10.503906 C 11.574219 10.503906 11.707031 10.371094 11.707031 10.210938 C 11.707031 10.050781 11.574219 9.921875 11.414062 9.921875 L 10.363281 9.921875 L 10.363281 9.039062 C 10.363281 8.359375 10.917969 7.804688 11.597656 7.804688 L 19.671875 7.804688 C 20.355469 7.804688 20.90625 8.359375 20.90625 9.039062 Z M 19.671875 7.222656 L 11.597656 7.222656 C 10.597656 7.222656 9.78125 8.039062 9.78125 9.039062 L 9.78125 9.921875 L 8.730469 9.921875 C 8.570312 9.921875 8.4375 10.050781 8.4375 10.210938 C 8.4375 10.371094 8.570312 10.503906 8.730469 10.503906 L 9.78125 10.503906 L 9.78125 12.769531 L 8.730469 12.769531 C 8.570312 12.769531 8.4375 12.898438 8.4375 13.058594 C 8.4375 13.21875 8.570312 13.347656 8.730469 13.347656 L 9.78125 13.347656 L 9.78125 15.617188 L 8.730469 15.617188 C 8.570312 15.617188 8.4375 15.746094 8.4375 15.90625 C 8.4375 16.070312 8.570312 16.199219 8.730469 16.199219 L 9.78125 16.199219 L 9.78125 18.480469 L 8.730469 18.480469 C 8.570312 18.480469 8.4375 18.609375 8.4375 18.769531 C 8.4375 18.929688 8.570312 19.0625 8.730469 19.0625 L 9.78125 19.0625 L 9.78125 19.910156 C 9.78125 20.914062 10.597656 21.726562 11.597656 21.726562 L 19.671875 21.726562 C 20.675781 21.726562 21.488281 20.914062 21.488281 19.910156 L 21.488281 9.039062 C 21.488281 8.039062 20.675781 7.222656 19.671875 7.222656 " fill-opacity="1" fill-rule="nonzero"/><path fill="#272324" d="M 10.371094 19.066406 L 10.371094 19.910156 C 10.371094 20.589844 10.921875 21.140625 11.597656 21.140625 L 19.671875 21.140625 C 20.351562 21.140625 20.902344 20.589844 20.902344 19.910156 L 20.902344 9.039062 C 20.902344 8.363281 20.351562 7.8125 19.671875 7.8125 L 11.597656 7.8125 C 10.921875 7.8125 10.371094 8.363281 10.371094 9.039062 L 10.371094 9.914062 L 11.414062 9.914062 C 11.578125 9.914062 11.714844 10.046875 11.714844 10.210938 C 11.714844 10.375 11.578125 10.507812 11.414062 10.507812 L 10.371094 10.507812 L 10.371094 12.761719 L 11.414062 12.761719 C 11.578125 12.761719 11.714844 12.894531 11.714844 13.058594 C 11.714844 13.222656 11.578125 13.355469 11.414062 13.355469 L 10.371094 13.355469 L 10.371094 15.609375 L 11.414062 15.609375 C 11.578125 15.609375 11.714844 15.742188 11.714844 15.90625 C 11.714844 16.070312 11.578125 16.207031 11.414062 16.207031 L 10.371094 16.207031 L 10.371094 18.472656 L 11.414062 18.472656 C 11.578125 18.472656 11.714844 18.605469 11.714844 18.769531 C 11.714844 18.933594 11.578125 19.066406 11.414062 19.066406 Z M 19.671875 21.152344 L 11.597656 21.152344 C 10.914062 21.152344 10.355469 20.59375 10.355469 19.910156 L 10.355469 19.054688 L 11.414062 19.054688 C 11.570312 19.054688 11.699219 18.925781 11.699219 18.769531 C 11.699219 18.613281 11.570312 18.484375 11.414062 18.484375 L 10.355469 18.484375 L 10.355469 16.191406 L 11.414062 16.191406 C 11.570312 16.191406 11.699219 16.066406 11.699219 15.90625 C 11.699219 15.75 11.570312 15.625 11.414062 15.625 L 10.355469 15.625 L 10.355469 13.34375 L 11.414062 13.34375 C 11.570312 13.34375 11.699219 13.214844 11.699219 13.058594 C 11.699219 12.902344 11.570312 12.773438 11.414062 12.773438 L 10.355469 12.773438 L 10.355469 10.496094 L 11.414062 10.496094 C 11.570312 10.496094 11.699219 10.367188 11.699219 10.210938 C 11.699219 10.054688 11.570312 9.925781 11.414062 9.925781 L 10.355469 9.925781 L 10.355469 9.039062 C 10.355469 8.355469 10.914062 7.800781 11.597656 7.800781 L 19.671875 7.800781 C 20.355469 7.800781 20.914062 8.355469 20.914062 9.039062 L 20.914062 19.910156 C 20.914062 20.59375 20.355469 21.152344 19.671875 21.152344 Z M 8.730469 18.484375 C 8.574219 18.484375 8.445312 18.613281 8.445312 18.769531 C 8.445312 18.925781 8.574219 19.054688 8.730469 19.054688 L 9.789062 19.054688 L 9.789062 19.910156 C 9.789062 20.910156 10.601562 21.71875 11.597656 21.71875 L 19.671875 21.71875 C 20.671875 21.71875 21.484375 20.910156 21.484375 19.910156 L 21.484375 9.039062 C 21.484375 8.042969 20.671875 7.230469 19.671875 7.230469 L 11.597656 7.230469 C 10.601562 7.230469 9.789062 8.042969 9.789062 9.039062 L 9.789062 9.925781 L 8.730469 9.925781 C 8.574219 9.925781 8.445312 10.054688 8.445312 10.210938 C 8.445312 10.367188 8.574219 10.496094 8.730469 10.496094 L 9.789062 10.496094 L 9.789062 12.773438 L 8.730469 12.773438 C 8.574219 12.773438 8.445312 12.902344 8.445312 13.058594 C 8.445312 13.214844 8.574219 13.34375 8.730469 13.34375 L 9.789062 13.34375 L 9.789062 15.625 L 8.730469 15.625 C 8.574219 15.625 8.445312 15.75 8.445312 15.90625 C 8.445312 16.066406 8.574219 16.191406 8.730469 16.191406 L 9.789062 16.191406 L 9.789062 18.484375 Z M 19.671875 21.734375 L 11.597656 21.734375 C 10.59375 21.734375 9.773438 20.914062 9.773438 19.910156 L 9.773438 19.066406 L 8.730469 19.066406 C 8.566406 19.066406 8.433594 18.933594 8.433594 18.769531 C 8.433594 18.605469 8.566406 18.472656 8.730469 18.472656 L 9.773438 18.472656 L 9.773438 16.207031 L 8.730469 16.207031 C 8.566406 16.207031 8.433594 16.070312 8.433594 15.90625 C 8.433594 15.742188 8.566406 15.609375 8.730469 15.609375 L 9.773438 15.609375 L 9.773438 13.355469 L 8.730469 13.355469 C 8.566406 13.355469 8.433594 13.222656 8.433594 13.058594 C 8.433594 12.894531 8.566406 12.761719 8.730469 12.761719 L 9.773438 12.761719 L 9.773438 10.507812 L 8.730469 10.507812 C 8.566406 10.507812 8.433594 10.375 8.433594 10.210938 C 8.433594 10.046875 8.566406 9.914062 8.730469 9.914062 L 9.773438 9.914062 L 9.773438 9.039062 C 9.773438 8.035156 10.59375 7.21875 11.597656 7.21875 L 19.671875 7.21875 C 20.679688 7.21875 21.496094 8.035156 21.496094 9.039062 L 21.496094 19.910156 C 21.496094 20.914062 20.679688 21.734375 19.671875 21.734375 " fill-opacity="1" fill-rule="nonzero"/></g></svg>