<svg xmlns="http://www.w3.org/2000/svg" xmlns:xlink="http://www.w3.org/1999/xlink" width="40" zoomAndPan="magnify" viewBox="0 0 30 30.000001" height="40" preserveAspectRatio="xMidYMid meet" version="1.0"><defs><clipPath id="a3560fbab7"><path d="M 8.25 7.765625 L 22.039062 7.765625 L 22.039062 21.554688 L 8.25 21.554688 Z M 8.25 7.765625 " clip-rule="nonzero"/></clipPath></defs><g clip-path="url(#a3560fbab7)"><path fill="#000000" d="M 11.101562 8.835938 C 11.101562 8.246094 11.582031 7.765625 12.171875 7.765625 C 12.765625 7.765625 13.242188 8.246094 13.242188 8.835938 L 13.242188 9.191406 L 17.046875 9.191406 L 17.046875 8.835938 C 17.046875 8.246094 17.527344 7.765625 18.117188 7.765625 C 18.707031 7.765625 19.1875 8.246094 19.1875 8.835938 L 19.1875 9.191406 L 20.851562 9.191406 C 21.507812 9.191406 22.039062 9.726562 22.039062 10.382812 L 22.039062 20.367188 C 22.039062 21.023438 21.507812 21.554688 20.851562 21.554688 L 9.4375 21.554688 C 8.78125 21.554688 8.25 21.023438 8.25 20.367188 L 8.25 10.382812 C 8.25 9.726562 8.78125 9.191406 9.4375 9.191406 L 11.101562 9.191406 Z M 19.1875 9.667969 L 19.1875 10.261719 C 19.1875 10.855469 18.707031 11.332031 18.117188 11.332031 C 17.527344 11.332031 17.046875 10.855469 17.046875 10.261719 L 17.046875 9.667969 L 13.242188 9.667969 L 13.242188 10.261719 C 13.242188 10.855469 12.765625 11.332031 12.171875 11.332031 C 11.582031 11.332031 11.101562 10.855469 11.101562 10.261719 L 11.101562 9.667969 L 9.4375 9.667969 C 9.042969 9.667969 8.726562 9.988281 8.726562 10.382812 L 8.726562 11.570312 L 21.566406 11.570312 L 21.566406 10.382812 C 21.566406 9.988281 21.246094 9.667969 20.851562 9.667969 Z M 12.171875 8.242188 C 11.84375 8.242188 11.578125 8.507812 11.578125 8.835938 L 11.578125 10.261719 C 11.578125 10.589844 11.84375 10.855469 12.171875 10.855469 C 12.5 10.855469 12.765625 10.589844 12.765625 10.261719 L 12.765625 8.835938 C 12.765625 8.507812 12.5 8.242188 12.171875 8.242188 Z M 8.726562 12.046875 L 8.726562 20.367188 C 8.726562 20.761719 9.042969 21.082031 9.4375 21.082031 L 20.851562 21.082031 C 21.246094 21.082031 21.566406 20.761719 21.566406 20.367188 L 21.566406 12.046875 Z M 17.523438 8.835938 C 17.523438 8.507812 17.789062 8.242188 18.117188 8.242188 C 18.445312 8.242188 18.710938 8.507812 18.710938 8.835938 L 18.710938 10.261719 C 18.710938 10.589844 18.445312 10.855469 18.117188 10.855469 C 17.789062 10.855469 17.523438 10.589844 17.523438 10.261719 Z M 10.152344 13.949219 C 10.152344 13.683594 10.363281 13.472656 10.628906 13.472656 L 12.054688 13.472656 C 12.316406 13.472656 12.53125 13.683594 12.53125 13.949219 L 12.53125 15.375 C 12.53125 15.636719 12.316406 15.851562 12.054688 15.851562 L 10.628906 15.851562 C 10.363281 15.851562 10.152344 15.636719 10.152344 15.375 Z M 12.054688 13.949219 L 10.628906 13.949219 L 10.628906 15.375 L 12.054688 15.375 Z M 10.628906 17.277344 C 10.363281 17.277344 10.152344 17.488281 10.152344 17.753906 L 10.152344 19.179688 C 10.152344 19.441406 10.363281 19.65625 10.628906 19.65625 L 12.054688 19.65625 C 12.316406 19.65625 12.53125 19.441406 12.53125 19.179688 L 12.53125 17.753906 C 12.53125 17.488281 12.316406 17.277344 12.054688 17.277344 Z M 10.628906 17.753906 L 12.054688 17.753906 L 12.054688 19.179688 L 10.628906 19.179688 Z M 13.957031 13.949219 C 13.957031 13.683594 14.167969 13.472656 14.433594 13.472656 L 15.859375 13.472656 C 16.121094 13.472656 16.332031 13.683594 16.332031 13.949219 L 16.332031 15.375 C 16.332031 15.636719 16.121094 15.851562 15.859375 15.851562 L 14.433594 15.851562 C 14.167969 15.851562 13.957031 15.636719 13.957031 15.375 Z M 15.859375 13.949219 L 14.433594 13.949219 L 14.433594 15.375 L 15.859375 15.375 Z M 14.433594 17.277344 C 14.167969 17.277344 13.957031 17.488281 13.957031 17.753906 L 13.957031 19.179688 C 13.957031 19.441406 14.167969 19.65625 14.433594 19.65625 L 15.859375 19.65625 C 16.121094 19.65625 16.332031 19.441406 16.332031 19.179688 L 16.332031 17.753906 C 16.332031 17.488281 16.121094 17.277344 15.859375 17.277344 Z M 14.433594 17.753906 L 15.859375 17.753906 L 15.859375 19.179688 L 14.433594 19.179688 Z M 17.761719 17.753906 C 17.761719 17.488281 17.972656 17.277344 18.234375 17.277344 L 19.664062 17.277344 C 19.925781 17.277344 20.136719 17.488281 20.136719 17.753906 L 20.136719 19.179688 C 20.136719 19.441406 19.925781 19.65625 19.664062 19.65625 L 18.234375 19.65625 C 17.972656 19.65625 17.761719 19.441406 17.761719 19.179688 Z M 19.664062 17.753906 L 18.234375 17.753906 L 18.234375 19.179688 L 19.664062 19.179688 Z M 20.335938 13.605469 C 20.410156 13.5 20.382812 13.351562 20.273438 13.277344 C 20.164062 13.203125 20.015625 13.230469 19.941406 13.335938 L 18.796875 15.003906 L 18.167969 14.375 C 18.074219 14.28125 17.921875 14.28125 17.832031 14.375 C 17.738281 14.46875 17.738281 14.617188 17.832031 14.710938 L 18.664062 15.542969 C 18.710938 15.59375 18.78125 15.617188 18.851562 15.613281 C 18.921875 15.605469 18.988281 15.566406 19.027344 15.507812 Z M 20.335938 13.605469 " fill-opacity="1" fill-rule="evenodd"/></g></svg>