<svg xmlns="http://www.w3.org/2000/svg" xmlns:xlink="http://www.w3.org/1999/xlink" width="40" zoomAndPan="magnify" viewBox="0 0 30 30.000001" height="40" preserveAspectRatio="xMidYMid meet" version="1.0"><defs><clipPath id="698193dbce"><path d="M 7.773438 7.914062 L 22.289062 7.914062 L 22.289062 20.976562 L 7.773438 20.976562 Z M 7.773438 7.914062 " clip-rule="nonzero"/></clipPath></defs><g clip-path="url(#698193dbce)"><path fill="#000000" d="M 19.359375 12.9375 C 19.539062 12.847656 19.703125 12.738281 19.859375 12.613281 C 20.011719 12.484375 20.148438 12.34375 20.273438 12.1875 C 20.394531 12.03125 20.496094 11.863281 20.582031 11.683594 C 20.664062 11.503906 20.726562 11.316406 20.769531 11.125 C 20.808594 10.929688 20.828125 10.734375 20.824219 10.539062 C 20.824219 10.339844 20.796875 10.144531 20.75 9.953125 C 20.703125 9.761719 20.636719 9.574219 20.546875 9.398438 C 20.457031 9.222656 20.351562 9.058594 20.222656 8.902344 C 20.097656 8.75 19.957031 8.613281 19.796875 8.488281 C 19.640625 8.367188 19.472656 8.265625 19.289062 8.179688 C 19.109375 8.09375 18.921875 8.03125 18.726562 7.988281 C 18.53125 7.941406 18.332031 7.921875 18.128906 7.921875 C 17.929688 7.921875 17.730469 7.945312 17.535156 7.988281 C 17.339844 8.03125 17.152344 8.09375 16.972656 8.179688 C 16.789062 8.265625 16.621094 8.371094 16.464844 8.492188 C 16.304688 8.613281 16.164062 8.753906 16.039062 8.90625 C 15.914062 9.058594 15.804688 9.226562 15.714844 9.402344 C 15.628906 9.578125 15.558594 9.765625 15.511719 9.957031 C 15.464844 10.148438 15.441406 10.34375 15.4375 10.539062 C 15.4375 10.738281 15.457031 10.933594 15.5 11.128906 C 15.539062 11.320312 15.601562 11.507812 15.6875 11.6875 C 15.769531 11.867188 15.875 12.035156 15.996094 12.191406 C 16.117188 12.347656 16.257812 12.488281 16.410156 12.613281 C 16.566406 12.742188 16.730469 12.847656 16.910156 12.9375 C 16.34375 13.113281 15.835938 13.390625 15.390625 13.773438 C 14.945312 14.160156 14.597656 14.617188 14.347656 15.148438 C 13.984375 14.886719 13.589844 14.691406 13.160156 14.5625 C 13.339844 14.472656 13.503906 14.363281 13.660156 14.238281 C 13.8125 14.109375 13.949219 13.96875 14.074219 13.8125 C 14.195312 13.65625 14.296875 13.488281 14.378906 13.308594 C 14.464844 13.128906 14.527344 12.941406 14.566406 12.75 C 14.609375 12.554688 14.628906 12.359375 14.625 12.164062 C 14.625 11.964844 14.597656 11.769531 14.550781 11.578125 C 14.503906 11.386719 14.4375 11.203125 14.347656 11.023438 C 14.257812 10.847656 14.152344 10.683594 14.023438 10.527344 C 13.898438 10.375 13.757812 10.238281 13.601562 10.117188 C 13.441406 9.992188 13.273438 9.890625 13.09375 9.804688 C 12.910156 9.71875 12.722656 9.65625 12.527344 9.613281 C 12.332031 9.570312 12.132812 9.546875 11.933594 9.546875 C 11.734375 9.546875 11.535156 9.570312 11.339844 9.613281 C 11.144531 9.65625 10.957031 9.71875 10.773438 9.804688 C 10.59375 9.890625 10.425781 9.992188 10.265625 10.117188 C 10.109375 10.238281 9.96875 10.375 9.839844 10.527344 C 9.714844 10.683594 9.609375 10.847656 9.519531 11.023438 C 9.429688 11.203125 9.363281 11.386719 9.316406 11.578125 C 9.269531 11.769531 9.242188 11.964844 9.242188 12.164062 C 9.238281 12.359375 9.257812 12.554688 9.296875 12.75 C 9.339844 12.941406 9.402344 13.128906 9.484375 13.308594 C 9.570312 13.488281 9.671875 13.65625 9.792969 13.8125 C 9.917969 13.96875 10.054688 14.109375 10.207031 14.238281 C 10.363281 14.363281 10.527344 14.472656 10.707031 14.5625 C 10.28125 14.691406 9.890625 14.882812 9.527344 15.136719 C 9.164062 15.390625 8.851562 15.691406 8.589844 16.042969 C 8.324219 16.398438 8.121094 16.78125 7.984375 17.195312 C 7.84375 17.613281 7.773438 18.039062 7.773438 18.476562 L 7.773438 19.40625 C 7.773438 19.5 7.816406 19.570312 7.898438 19.617188 C 8.519531 19.949219 9.167969 20.203125 9.851562 20.375 C 10.535156 20.546875 11.230469 20.632812 11.933594 20.632812 C 12.636719 20.632812 13.332031 20.546875 14.015625 20.375 C 14.699219 20.203125 15.347656 19.949219 15.96875 19.617188 C 16.050781 19.570312 16.09375 19.5 16.09375 19.40625 L 16.09375 18.753906 C 17.117188 19.011719 18.152344 19.074219 19.203125 18.941406 C 20.25 18.8125 21.238281 18.492188 22.164062 17.992188 C 22.25 17.945312 22.289062 17.878906 22.289062 17.785156 L 22.289062 16.851562 C 22.289062 16.414062 22.21875 15.988281 22.082031 15.570312 C 21.941406 15.15625 21.742188 14.773438 21.476562 14.417969 C 21.214844 14.066406 20.898438 13.765625 20.539062 13.511719 C 20.175781 13.257812 19.78125 13.066406 19.359375 12.9375 Z M 15.921875 10.578125 C 15.921875 10.289062 15.980469 10.011719 16.089844 9.746094 C 16.203125 9.476562 16.363281 9.242188 16.570312 9.039062 C 16.777344 8.835938 17.015625 8.675781 17.289062 8.566406 C 17.558594 8.457031 17.839844 8.402344 18.132812 8.402344 C 18.425781 8.402344 18.707031 8.457031 18.976562 8.566406 C 19.25 8.675781 19.488281 8.835938 19.695312 9.039062 C 19.902344 9.242188 20.0625 9.476562 20.175781 9.746094 C 20.285156 10.011719 20.34375 10.289062 20.34375 10.578125 C 20.34375 10.867188 20.285156 11.144531 20.175781 11.410156 C 20.0625 11.675781 19.902344 11.914062 19.695312 12.117188 C 19.488281 12.320312 19.25 12.476562 18.976562 12.589844 C 18.707031 12.699219 18.425781 12.753906 18.132812 12.753906 C 17.839844 12.753906 17.558594 12.699219 17.289062 12.585938 C 17.015625 12.476562 16.777344 12.320312 16.570312 12.117188 C 16.363281 11.914062 16.203125 11.675781 16.09375 11.410156 C 15.980469 11.144531 15.921875 10.867188 15.921875 10.578125 Z M 9.722656 12.203125 C 9.722656 11.914062 9.78125 11.636719 9.890625 11.371094 C 10.003906 11.101562 10.164062 10.867188 10.371094 10.664062 C 10.578125 10.460938 10.816406 10.300781 11.089844 10.191406 C 11.359375 10.082031 11.640625 10.027344 11.933594 10.027344 C 12.226562 10.027344 12.507812 10.082031 12.78125 10.191406 C 13.050781 10.300781 13.289062 10.460938 13.496094 10.664062 C 13.703125 10.867188 13.863281 11.101562 13.976562 11.371094 C 14.085938 11.636719 14.144531 11.914062 14.144531 12.203125 C 14.144531 12.492188 14.085938 12.769531 13.976562 13.035156 C 13.863281 13.300781 13.703125 13.539062 13.496094 13.742188 C 13.289062 13.945312 13.050781 14.101562 12.777344 14.214844 C 12.507812 14.324219 12.226562 14.378906 11.933594 14.378906 C 11.640625 14.378906 11.359375 14.324219 11.089844 14.210938 C 10.816406 14.101562 10.578125 13.945312 10.371094 13.742188 C 10.164062 13.535156 10.003906 13.300781 9.894531 13.035156 C 9.78125 12.769531 9.726562 12.492188 9.722656 12.203125 Z M 15.609375 19.265625 C 14.457031 19.859375 13.234375 20.15625 11.933594 20.15625 C 10.632812 20.15625 9.410156 19.859375 8.257812 19.265625 L 8.257812 18.476562 C 8.261719 18 8.359375 17.539062 8.546875 17.097656 C 8.734375 16.660156 9 16.269531 9.34375 15.933594 C 9.6875 15.597656 10.085938 15.339844 10.535156 15.15625 C 10.980469 14.976562 11.449219 14.886719 11.933594 14.886719 C 12.417969 14.886719 12.886719 14.976562 13.332031 15.15625 C 13.78125 15.339844 14.179688 15.597656 14.523438 15.933594 C 14.867188 16.269531 15.132812 16.660156 15.320312 17.097656 C 15.507812 17.539062 15.605469 18 15.609375 18.476562 Z M 21.804688 17.640625 C 20.925781 18.097656 19.992188 18.378906 19.003906 18.484375 C 18.015625 18.59375 17.042969 18.519531 16.082031 18.261719 C 16.023438 17.148438 15.574219 16.214844 14.738281 15.460938 C 14.902344 15.074219 15.128906 14.726562 15.414062 14.417969 C 15.699219 14.109375 16.027344 13.855469 16.402344 13.65625 C 16.777344 13.460938 17.175781 13.332031 17.597656 13.269531 C 18.015625 13.210938 18.433594 13.21875 18.851562 13.300781 C 19.269531 13.382812 19.660156 13.53125 20.023438 13.746094 C 20.386719 13.960938 20.703125 14.230469 20.972656 14.554688 C 21.242188 14.878906 21.449219 15.238281 21.59375 15.632812 C 21.734375 16.027344 21.804688 16.433594 21.804688 16.851562 Z M 21.804688 17.640625 " fill-opacity="1" fill-rule="nonzero"/></g></svg>