<svg xmlns="http://www.w3.org/2000/svg" xmlns:xlink="http://www.w3.org/1999/xlink" width="40" zoomAndPan="magnify" viewBox="0 0 30 30.000001" height="40" preserveAspectRatio="xMidYMid meet" version="1.0"><defs><clipPath id="c3472203a5"><path d="M 9 9.527344 L 15 9.527344 L 15 19.6875 L 9 19.6875 Z M 9 9.527344 " clip-rule="nonzero"/></clipPath><clipPath id="84c04a32f0"><path d="M 15 9.527344 L 21 9.527344 L 21 19.6875 L 15 19.6875 Z M 15 9.527344 " clip-rule="nonzero"/></clipPath><clipPath id="2ed0999769"><path d="M 8.035156 11 L 14 11 L 14 19.6875 L 8.035156 19.6875 Z M 8.035156 11 " clip-rule="nonzero"/></clipPath><clipPath id="9b43e96bcb"><path d="M 16 11 L 21.824219 11 L 21.824219 19.6875 L 16 19.6875 Z M 16 11 " clip-rule="nonzero"/></clipPath></defs><g clip-path="url(#c3472203a5)"><path fill="#000000" d="M 9.8125 17.949219 C 10.222656 17.972656 10.984375 18.050781 11.851562 18.296875 C 12.714844 18.542969 13.683594 18.957031 14.507812 19.640625 C 14.554688 19.679688 14.617188 19.683594 14.671875 19.660156 C 14.726562 19.632812 14.757812 19.578125 14.757812 19.515625 L 14.757812 11.253906 C 14.757812 11.203125 14.734375 11.15625 14.699219 11.128906 C 14.476562 10.953125 13.941406 10.578125 13.121094 10.230469 C 12.296875 9.886719 11.191406 9.574219 9.828125 9.53125 C 9.785156 9.527344 9.746094 9.542969 9.714844 9.574219 C 9.683594 9.605469 9.667969 9.644531 9.667969 9.6875 L 9.667969 17.789062 C 9.667969 17.875 9.730469 17.941406 9.8125 17.949219 Z M 14.453125 11.332031 L 14.453125 19.199219 C 13.640625 18.59375 12.742188 18.222656 11.929688 17.992188 C 11.128906 17.765625 10.417969 17.675781 9.976562 17.644531 L 9.976562 9.851562 C 11.226562 9.914062 12.242188 10.207031 13.003906 10.523438 C 13.726562 10.828125 14.214844 11.15625 14.453125 11.332031 Z M 14.453125 11.332031 " fill-opacity="1" fill-rule="nonzero"/></g><g clip-path="url(#84c04a32f0)"><path fill="#000000" d="M 15.1875 19.660156 C 15.242188 19.683594 15.304688 19.675781 15.351562 19.640625 C 16.175781 18.953125 17.144531 18.542969 18.007812 18.296875 C 18.875 18.050781 19.636719 17.972656 20.046875 17.949219 C 20.128906 17.941406 20.191406 17.875 20.191406 17.789062 L 20.191406 9.6875 C 20.191406 9.644531 20.175781 9.605469 20.144531 9.574219 C 20.113281 9.542969 20.074219 9.527344 20.03125 9.53125 C 18.660156 9.574219 17.554688 9.886719 16.734375 10.230469 C 15.914062 10.578125 15.382812 10.953125 15.160156 11.125 C 15.121094 11.15625 15.101562 11.203125 15.101562 11.253906 L 15.101562 19.515625 C 15.101562 19.578125 15.132812 19.632812 15.1875 19.660156 Z M 16.851562 10.523438 C 17.609375 10.203125 18.628906 9.914062 19.882812 9.851562 L 19.882812 17.644531 C 19.441406 17.675781 18.730469 17.765625 17.929688 17.992188 C 17.117188 18.222656 16.21875 18.59375 15.40625 19.199219 L 15.40625 11.332031 C 15.640625 11.15625 16.128906 10.828125 16.851562 10.523438 Z M 16.851562 10.523438 " fill-opacity="1" fill-rule="nonzero"/></g><g clip-path="url(#2ed0999769)"><path fill="#000000" d="M 13.296875 19.605469 C 13.375 19.625 13.449219 19.582031 13.476562 19.507812 C 13.503906 19.433594 13.472656 19.351562 13.40625 19.3125 C 12.496094 18.808594 11.527344 18.554688 10.785156 18.421875 C 10.410156 18.359375 10.09375 18.324219 9.867188 18.308594 C 9.753906 18.296875 9.664062 18.292969 9.601562 18.292969 C 9.570312 18.289062 9.546875 18.289062 9.527344 18.289062 C 9.519531 18.289062 9.511719 18.289062 9.507812 18.289062 C 9.5 18.289062 9.5 18.289062 9.496094 18.289062 L 9.324219 18.289062 L 9.324219 11.632812 C 9.324219 11.550781 9.265625 11.480469 9.1875 11.472656 C 9.066406 11.464844 8.9375 11.460938 8.808594 11.460938 C 8.585938 11.460938 8.359375 11.472656 8.175781 11.488281 C 8.09375 11.492188 8.035156 11.5625 8.035156 11.644531 L 8.035156 19.097656 C 8.035156 19.140625 8.054688 19.183594 8.085938 19.214844 C 8.117188 19.246094 8.160156 19.257812 8.207031 19.253906 C 8.710938 19.191406 9.210938 19.167969 9.695312 19.167969 C 11.085938 19.167969 12.351562 19.382812 13.296875 19.605469 Z M 9.019531 11.78125 L 9.019531 18.445312 C 9.019531 18.488281 9.035156 18.527344 9.0625 18.558594 C 9.09375 18.585938 9.132812 18.605469 9.171875 18.605469 L 9.496094 18.605469 C 9.507812 18.605469 9.640625 18.605469 9.859375 18.621094 C 10.191406 18.648438 10.71875 18.710938 11.324219 18.855469 C 11.511719 18.902344 11.707031 18.953125 11.902344 19.015625 C 11.230469 18.917969 10.484375 18.851562 9.695312 18.851562 C 9.253906 18.851562 8.800781 18.871094 8.339844 18.921875 L 8.339844 11.792969 C 8.488281 11.78125 8.648438 11.773438 8.808594 11.773438 C 8.878906 11.773438 8.949219 11.777344 9.019531 11.78125 Z M 9.019531 11.78125 " fill-opacity="1" fill-rule="nonzero"/></g><g clip-path="url(#9b43e96bcb)"><path fill="#000000" d="M 21.683594 11.488281 C 21.5 11.472656 21.273438 11.460938 21.050781 11.460938 C 20.921875 11.460938 20.792969 11.464844 20.671875 11.472656 C 20.59375 11.480469 20.535156 11.550781 20.535156 11.632812 L 20.535156 18.289062 L 20.363281 18.289062 C 20.359375 18.289062 20.359375 18.289062 20.351562 18.289062 C 20.273438 18.289062 19.738281 18.300781 19.003906 18.4375 C 18.265625 18.570312 17.328125 18.824219 16.449219 19.316406 C 16.382812 19.351562 16.351562 19.4375 16.378906 19.511719 C 16.40625 19.582031 16.480469 19.625 16.558594 19.609375 C 17.503906 19.382812 18.769531 19.167969 20.160156 19.167969 C 20.648438 19.167969 21.148438 19.191406 21.652344 19.253906 C 21.699219 19.257812 21.742188 19.246094 21.773438 19.214844 C 21.804688 19.183594 21.824219 19.140625 21.824219 19.097656 L 21.824219 11.644531 C 21.824219 11.5625 21.765625 11.492188 21.683594 11.488281 Z M 17.957031 19.015625 C 18.375 18.886719 18.773438 18.796875 19.125 18.734375 C 19.488281 18.671875 19.792969 18.640625 20.011719 18.621094 C 20.121094 18.613281 20.210938 18.609375 20.269531 18.605469 C 20.300781 18.605469 20.324219 18.605469 20.339844 18.605469 C 20.347656 18.605469 20.351562 18.605469 20.355469 18.605469 L 20.6875 18.605469 C 20.773438 18.605469 20.839844 18.53125 20.839844 18.445312 L 20.839844 11.78125 C 20.910156 11.777344 20.980469 11.773438 21.050781 11.773438 C 21.210938 11.773438 21.371094 11.78125 21.519531 11.792969 L 21.519531 18.921875 C 21.058594 18.871094 20.601562 18.851562 20.160156 18.851562 C 19.375 18.851562 18.628906 18.917969 17.957031 19.015625 Z M 17.957031 19.015625 " fill-opacity="1" fill-rule="nonzero"/></g></svg>